<?xml version="1.0" encoding="utf-8"?>
<!-- Generator: Adobe Illustrator 25.1.0, SVG Export Plug-In . SVG Version: 6.00 Build 0)  -->
<svg version="1.1" id="Layer_1" xmlns="http://www.w3.org/2000/svg" xmlns:xlink="http://www.w3.org/1999/xlink" x="0px" y="0px"
	 viewBox="0 0 228 80" style="enable-background:new 0 0 228 80;" xml:space="preserve">
<style type="text/css">
	.st0{filter:url(#Adobe_OpacityMaskFilter);}
	.st1{fill-rule:evenodd;clip-rule:evenodd;fill:#FFFFFF;}
	.st2{mask:url(#mask-3_1_);fill-rule:evenodd;clip-rule:evenodd;fill:#F0F0F0;}
	.st3{fill-rule:evenodd;clip-rule:evenodd;fill:#F0F0F0;}
	.st4{filter:url(#Adobe_OpacityMaskFilter_1_);}
	.st5{mask:url(#mask-5_1_);fill-rule:evenodd;clip-rule:evenodd;fill:#F0F0F0;}
</style>
<defs>
	<filter id="Adobe_OpacityMaskFilter" filterUnits="userSpaceOnUse" x="0" y="0" width="70.5" height="62.2">
		<feColorMatrix  type="matrix" values="1 0 0 0 0  0 1 0 0 0  0 0 1 0 0  0 0 0 1 0"/>
	</filter>
</defs>
<mask maskUnits="userSpaceOnUse" x="0" y="0" width="70.5" height="62.2" id="mask-3_1_">
	<g class="st0">
		<polygon id="path-2_1_" class="st1" points="0,0 70.5,0 70.5,62.2 0,62.2 		"/>
	</g>
</mask>
<path id="Fill-1" class="st2" d="M69.3,0c0.8,0,1.2,0.4,1.2,1.2v2.5c0,0.8-0.4,1.2-1.2,1.2c-4.1,0-6.1,3.4-6,7.9v48.1
	c0,0.8-0.4,1.2-1.2,1.2h-5.7c-0.7,0-1.1-0.2-1.5-0.7L15.6,16.3v33c0,4.5,2,7.9,6.1,7.9c0.8,0,1.2,0.4,1.2,1.2v2.5
	c0,0.8-0.4,1.2-1.2,1.2H1.2c-0.8,0-1.2-0.4-1.2-1.2v-2.5c0-0.8,0.4-1.2,1.2-1.2c4.1,0,6-3.4,6-7.9V7.1C5.6,5.7,4.1,5,2.1,5
	C1.2,5,0.8,4.6,0.8,3.7V1.3C0.8,0.5,1.2,0,2.1,0h14.4c0.7,0,1.1,0.2,1.5,0.7l37,42.3V12.9c0-4.5-2-7.9-6.1-7.9
	c-0.8,0-1.2-0.4-1.2-1.2V1.2C47.6,0.4,48,0,48.8,0H69.3z"/>
<path id="Fill-4" class="st3" d="M114.9,45.4c0,4.4,0.3,9,4.9,9.5c0.8,0.1,1,0.5,1,1.1v2.8c0,0.7-0.4,1.1-1.2,1.1
	c-8.1,0-11.5,1.6-15.2,3.2c-0.1,0.1-0.5,0.2-0.7,0.2h-0.2c-0.1,0-0.1-0.1-0.1-0.2l1.3-10.5c-2.3,4.7-7.4,10.7-15,10.7
	c-11.8,0-14.1-8-14.1-16V33.6c0-4.5-2-7.9-6.1-7.9h-0.4c-0.8,0-1.2-0.4-1.2-1.2V22c0-0.8,0.4-1.2,1.2-1.2l0.2,0h16.6
	c0.8,0,1.2,0.4,1.2,1.2v24.1c0,4.5-0.4,9.9,6,9.9c4.1,0,8.7-3.6,10.1-7.1V33.6c0-4.5-2-7.9-6.1-7.9H97c-0.8,0-1.2-0.4-1.2-1.2V22
	c0-0.8,0.4-1.2,1.2-1.3h16.6c0.8,0,1.2,0.4,1.2,1.2V45.4z"/>
<defs>
	<filter id="Adobe_OpacityMaskFilter_1_" filterUnits="userSpaceOnUse" x="124.6" y="18.2" width="41.4" height="61.8">
		<feColorMatrix  type="matrix" values="1 0 0 0 0  0 1 0 0 0  0 0 1 0 0  0 0 0 1 0"/>
	</filter>
</defs>
<mask maskUnits="userSpaceOnUse" x="124.6" y="18.2" width="41.4" height="61.8" id="mask-5_1_">
	<g class="st4">
		<polygon id="path-4_1_" class="st1" points="124.6,18.2 166.1,18.2 166.1,80 124.6,80 		"/>
	</g>
</mask>
<path id="Fill-6" class="st5" d="M135.8,35.6c0,4.8,1.8,11,8.1,11c6.3,0,7.5-6.1,7.5-11c0-4.8-1.2-11-7.5-11
	C137.6,24.6,135.8,30.8,135.8,35.6L135.8,35.6z M156.2,70.1c0-3.6-4.9-4.3-13.2-4.7c-3-0.2-5.6-0.5-7.7-1c-1.6,1.1-2.4,2.6-2.4,4.4
	c0,2.6,2.3,5.6,10.6,5.6C151.7,74.3,156.2,72.6,156.2,70.1L156.2,70.1z M164.9,18.2c0.6,0,1,0.4,1.1,1.2c0.4,5.4-2.2,8.5-5.9,8.5
	c1.3,2.3,2,4.9,2,7.7c0,8.7-6.9,15.8-18.3,15.8c-3.9,0-7.3-0.8-10-2.3c-0.6,0.5-1.1,1.2-1.1,2c0,2.5,1.9,3.8,12.1,4.3
	c9.7,0.5,19.3,2.3,19.3,12.3c0,9-10.8,12.3-20.7,12.3c-10.1,0-18.8-3.1-18.8-10.1c0-3.7,2.1-6.2,5-7.8c-2.9-1.8-4.2-4.4-4.2-7.5
	c0-3.7,2.1-6.4,5.1-7.7c-3.2-2.9-4.9-6.9-4.9-11.3c0-8.7,6.9-15.8,18.2-15.8c4.6,0,8.5,1.2,11.5,3.1l0.4,0.2
	c0.2,0.1,0.5,0.2,0.8,0.2c0.8,0,1.5-0.5,1.4-2.1l0-0.3c0-0.7,0.2-1.1,0.9-1.2l5.7-1.4L164.9,18.2z"/>
<path id="Fill-9" class="st3" d="M201.2,33.7c-0.2,0.1-0.5,0.2-0.7,0.2c-0.4,0-0.7-0.2-1-0.6c-5-6.2-10.9-8.5-14.8-8.5
	c-2.9,0-5.8,1.1-5.8,4.2c0,3.6,4.7,5.1,9.2,6.2c7.7,2,18.7,4.4,18.7,14.5c0,7.7-6.6,13.4-17.5,13.4c-3.4,0-6.7-0.7-9.6-2.1
	c-0.3-0.1-0.5-0.2-0.7-0.2c-0.5,0-0.7,0.5-0.4,1.2c0.1,0.3,0.1,0.5,0.1,0.7c0,0.5-0.3,0.7-0.9,0.6h-3c-0.7,0-1.1-0.2-1.5-0.8
	l-7.1-13.4c-0.1-0.2-0.2-0.5-0.2-0.7c0-0.4,0.2-0.7,0.7-1l2.6-1.5c0.3-0.1,0.5-0.2,0.7-0.2c0.4,0,0.7,0.2,1,0.7
	c5.3,8.1,12,11.2,18.8,11.2c5.1,0,8-1.6,8-4.7c0-4.3-6.9-5.8-12.6-7.5c-13.5-4-15.8-8.9-15.8-14.3c0-6.6,5.5-11.3,14.2-11.3
	c5.2,0,9.5,1.9,11,2.7c0.2,0.1,0.3,0.1,0.4,0.1c0.5,0,0.4-0.8,0.1-1.7c-0.1-0.2-0.1-0.4-0.1-0.6c0-0.6,0.3-0.9,1-0.9h2.2
	c0.7,0,1.2,0.3,1.4,1l4.1,10.5c0.1,0.3,0.2,0.6,0.2,0.8c0,0.3-0.2,0.6-0.7,0.9L201.2,33.7z"/>
<path id="Fill-11" class="st3" d="M216.2,49.2c1-1,2.1-1.6,3.2-1.6c1.1,0,2.2,0.5,3.2,1.6l3.2,3.2c1,1,1.6,2.1,1.6,3.2
	c0,1.1-0.5,2.2-1.6,3.2l-3.2,3.2c-1,1-2.1,1.6-3.2,1.6c-1.1,0-2.2-0.5-3.2-1.6l-3.2-3.2c-1-1-1.6-2.1-1.6-3.2c0-1.1,0.5-2.2,1.6-3.2
	L216.2,49.2z"/>
</svg>
