<?xml version="1.0" encoding="utf-8"?>
<!-- Generator: Adobe Illustrator 21.1.0, SVG Export Plug-In . SVG Version: 6.00 Build 0)  -->
<svg version="1.1" id="Layer_1" xmlns="http://www.w3.org/2000/svg" xmlns:xlink="http://www.w3.org/1999/xlink" x="0px" y="0px"
	 height="30px" viewBox="0 0 519.6 90" style="enable-background:new 0 0 519.6 90;" xml:space="preserve">
<style type="text/css">
	.st0{fill:#FFFFFF; opacity: 0}
	.square{fill:#E31F3C; animation-name: square; animation-duration: 750ms; animation-delay: 0000ms} 
	.triangle{fill:#edd357; opacity: 0; animation-name: circles; animation-duration: 500ms; animation-delay: 250ms} 
	.circle{fill:#1779ba; opacity: 0; animation-name: circles; animation-duration: 500ms; } 

	@keyframes letterFade{
  		0% {
    		opacity: 0;
  		}

		50% {
			opacity: 1;
		}

		100% {
			opacity: 0;
		}
	}

	@keyframes square {
		0% {
			opacity: 0;
		}

		25% {
			opacity: 0;
		}

		50% {
			opacity: 0;
		}

		75% {
			opacity: 0;
		}

		100% {
			opacity: 1;
		}
	}

	@keyframes circles {
			0% {
				opacity: 0;
			}

			50% {
				opacity: 1;
			}

			100% {
				opacity: 0;
			}

	}
</style>
<title>RED-Logo-2018</title>
<desc>Created with Sketch.</desc>
<g id="RED-Logo-2018" style="animation-name: circle; animation-duration: 1000ms;">
	<path id="Fill-1" class="st0" style="animation-name: letterFade; animation-duration: 4000ms; animation-delay: 1.5s" d="M156.9,72.5l-11.8-17.6h-9.5v17.6h-12.1v-55h25.2c13,0,20.7,6.8,20.7,18.2v0.2
		c0,8.9-4.8,14.5-11.8,17.1l13.4,19.6H156.9z M157.2,36.2c0-5.2-3.6-7.9-9.5-7.9h-12v15.8h12.3c5.9,0,9.3-3.1,9.3-7.8V36.2z"/>
	<path id="Fill-3" class="st0" style="animation-name: letterFade; animation-duration: 4000ms; animation-delay: 1.5s" d="M213.6,55.3h-29.3c1.2,5.4,5,8.3,10.3,8.3c4,0,6.9-1.3,10.2-4.3l6.8,6.1
		c-3.9,4.9-9.6,7.9-17.2,7.9c-12.7,0-22-8.9-22-21.8v-0.2c0-12,8.6-21.9,20.8-21.9c14.1,0,20.5,10.9,20.5,22.9v0.2
		C213.7,53.5,213.6,54.2,213.6,55.3 M193.2,38.9c-5,0-8.2,3.5-9.1,9h18C201.4,42.5,198.2,38.9,193.2,38.9"/>
	<path id="Fill-5" class="st0" style="animation-name: letterFade; animation-duration: 4000ms; animation-delay: 1.5s" d="M250,72.2v-6.1c-2.9,3.9-6.9,6.8-13.1,6.8c-9.8,0-19.2-7.7-19.2-21.8v-0.2
		c0-14.1,9.2-21.8,19.2-21.8c6.4,0,10.3,2.9,13.1,6.3V14.8H262v57.4H250z M250.2,51.1c0-7-4.6-11.6-10.2-11.6
		c-5.6,0-10.3,4.6-10.3,11.6v0.2c0,7,4.7,11.6,10.3,11.6c5.6,0,10.2-4.6,10.2-11.6V51.1z"/>
	<path id="Fill-7" class="st0" style="animation-name: letterFade; animation-duration: 4000ms; animation-delay: 1.5s" d="M290,73c-8.3,0-16.7-2.9-23.3-8.8l7.2-8.6c5,4.1,10.1,6.7,16.4,6.7c4.9,0,7.9-2,7.9-5.2V57
		c0-3.1-1.9-4.6-11.1-7c-11.1-2.8-18.2-5.9-18.2-16.8V33c0-10,8-16.6,19.3-16.6c8,0,14.9,2.5,20.4,7l-6.3,9.1
		c-4.9-3.4-9.7-5.4-14.3-5.4c-4.6,0-7.1,2.1-7.1,4.8V32c0,3.6,2.4,4.8,11.9,7.2c11.2,2.9,17.4,6.9,17.4,16.5v0.2
		C310.2,66.9,301.9,73,290,73"/>
	<path id="Fill-9" class="st0" style="animation-name: letterFade; animation-duration: 4000ms; animation-delay: 1.5s" d="M345.8,84.8V66.1c-2.9,3.9-6.9,6.8-13.1,6.8c-9.8,0-19.2-7.7-19.2-21.8v-0.2
		c0-14.1,9.2-21.8,19.2-21.8c6.4,0,10.3,2.9,13.1,6.3v-5.5h11.9v54.7H345.8z M345.9,51.1c0-7-4.6-11.6-10.2-11.6
		c-5.6,0-10.3,4.6-10.3,11.6v0.2c0,7,4.7,11.6,10.3,11.6c5.6,0,10.2-4.6,10.2-11.6V51.1z"/>
	<path id="Fill-11" class="st0" style="animation-name: letterFade; animation-duration: 4000ms; animation-delay: 1.5s" d="M390,72.2v-6c-2.8,3.5-6.3,6.8-12.3,6.8c-9,0-14.3-6-14.3-15.6V30.1h12v23.5
		c0,5.7,2.7,8.6,7.2,8.6c4.6,0,7.5-2.9,7.5-8.6V30.1H402v42.1H390z"/>
	<path id="Fill-13" class="st0" style="animation-name: letterFade; animation-duration: 4000ms; animation-delay: 1.5s" d="M433.9,72.2v-4.6C431,70.9,427,73,421.2,73c-7.9,0-14.5-4.6-14.5-12.9v-0.2c0-9.2,7-13.4,17-13.4
		c4.2,0,7.3,0.7,10.3,1.7v-0.7c0-5-3.1-7.7-9-7.7c-4.6,0-7.8,0.9-11.6,2.3l-3-9.1c4.6-2,9.2-3.4,16.3-3.4c13,0,18.8,6.8,18.8,18.2
		v24.4H433.9z M434.2,55.2c-2-0.9-4.7-1.6-7.6-1.6c-5.1,0-8.3,2-8.3,5.8v0.2c0,3.2,2.7,5.1,6.5,5.1c5.6,0,9.4-3.1,9.4-7.4V55.2z"/>
	<path id="Fill-15" class="st0" style="animation-name: letterFade; animation-duration: 4000ms; animation-delay: 1.5s" d="M475.8,41.8c-7.9,0-12.8,4.8-12.8,14.9v15.6H451V30.1H463v8.5c2.4-5.8,6.4-9.6,13.4-9.3v12.5
		H475.8z"/>
	<path id="Fill-17" class="st0" style="animation-name: letterFade; animation-duration: 4000ms; animation-delay: 1.5s" d="M519.5,55.3h-29.3c1.2,5.4,4.9,8.3,10.3,8.3c4,0,6.9-1.3,10.2-4.3l6.8,6.1
		c-3.9,4.9-9.6,7.9-17.2,7.9c-12.7,0-22-8.9-22-21.8v-0.2c0-12,8.6-21.9,20.8-21.9c14.1,0,20.5,10.9,20.5,22.9v0.2
		C519.6,53.5,519.6,54.2,519.5,55.3 M499.1,38.9c-5,0-8.2,3.5-9.1,9h18C507.3,42.5,504.1,38.9,499.1,38.9"/>
	<polygon id="Fill-19" class="square" points="89,90 46.7,90 0,90 0,43 0,0 46.7,0 89,0 89,42.9 	"/>
	<polygon class="triangle" points="50 0, 100 100, 0 100"/>
	<circle class="circle" cx="50" cy="50" r="50"/>
</g>
</svg>
